<svg fill="#000000" height="200px" width="200px" version="1.1" id="Layer_1" xmlns="http://www.w3.org/2000/svg" xmlns:xlink="http://www.w3.org/1999/xlink" viewBox="0 0 512.043 512.043" xml:space="preserve"><g id="SVGRepo_bgCarrier" stroke-width="0"></g><g id="SVGRepo_tracerCarrier" stroke-linecap="round" stroke-linejoin="round"></g><g id="SVGRepo_iconCarrier"> <g> <g> <path d="M505.794,240.936L271.128,6.27c-4.001-4.001-9.427-6.248-15.085-6.248H21.376C2.37,0.021-7.148,23,6.291,36.44 l219.582,219.582L6.291,475.603c-13.439,13.439-3.921,36.418,15.085,36.418h234.667c5.658,0,11.084-2.248,15.085-6.248 l234.667-234.667C514.126,262.775,514.126,249.268,505.794,240.936z M247.206,469.355H72.879l198.248-198.248 c8.331-8.331,8.331-21.839,0-30.17L72.879,42.688h174.327L460.54,256.021L247.206,469.355z"></path> </g> </g> </g></svg>